<svg width="48" height="48" viewBox="0 0 48 48" fill="none" xmlns="http://www.w3.org/2000/svg">
<path fill-rule="evenodd" clip-rule="evenodd" d="M40.4559 32.5169L16.1559 39.0809C14.1009 39.6359 11.9499 38.4539 11.3829 36.4529L4.64188 12.7829C4.06888 10.7819 5.28388 8.68785 7.34188 8.13285L31.6419 1.56885C32.6709 1.29285 33.7449 1.88385 34.0299 2.88285L41.8059 30.1919C42.0939 31.1939 41.4849 32.2379 40.4559 32.5169" fill="#050505"/>
<path d="M40.4559 32.5169L16.1559 39.0809C14.1009 39.6359 11.9499 38.4539 11.3829 36.4529L4.64188 12.7829C4.06888 10.7819 5.28388 8.68785 7.34188 8.13285L31.6419 1.56885C32.6709 1.29285 33.7449 1.88385 34.0299 2.88285L41.8059 30.1919C42.0939 31.1939 41.4849 32.2379 40.4559 32.5169" stroke="black" stroke-width="2"/>
<path fill-rule="evenodd" clip-rule="evenodd" d="M40.4559 32.5169L16.1559 39.0809C14.1009 39.6359 11.9499 38.4539 11.3829 36.4529L4.64188 12.7829C4.06888 10.7819 5.28388 8.68785 7.34188 8.13285L31.6419 1.56885C32.6709 1.29285 33.7449 1.88385 34.0299 2.88285L41.8059 30.1919C42.0939 31.1939 41.4849 32.2379 40.4559 32.5169Z" stroke="#050505" stroke-linejoin="round"/>
<path d="M11.1211 35.54L13.4521 43.73" stroke="#050505" stroke-width="2" stroke-linejoin="round"/>
<path d="M16.1561 39.082C14.0981 39.637 12.8831 41.731 13.4531 43.732C14.0231 45.736 16.1741 46.918 18.2261 46.363L43.4981 39.574" stroke="#050505" stroke-width="2" stroke-linecap="round" stroke-linejoin="round"/>
<path d="M39.6914 33.0381L41.5064 39.4161" stroke="#050505" stroke-width="2" stroke-linejoin="round"/>
</svg>
