<svg width="48" height="48" viewBox="0 0 48 48" fill="none" xmlns="http://www.w3.org/2000/svg">
<path fill-rule="evenodd" clip-rule="evenodd" d="M10.5 13.5C10.5 7.596 13.368 4.5 18 4.5C22.632 4.5 25.5 7.596 25.5 13.5C25.5 18.471 22.632 22.5 18 22.5C13.368 22.5 10.5 18.471 10.5 13.5" fill="#050505"/>
<path fill-rule="evenodd" clip-rule="evenodd" d="M10.5 13.5C10.5 7.596 13.368 4.5 18 4.5C22.632 4.5 25.5 7.596 25.5 13.5C25.5 18.471 22.632 22.5 18 22.5C13.368 22.5 10.5 18.471 10.5 13.5Z" stroke="#050505" stroke-linejoin="round"/>
<path fill-rule="evenodd" clip-rule="evenodd" d="M34.1183 34.032C33.5753 33.081 32.6003 32.457 31.5113 32.361C30.4223 32.268 29.3513 32.721 28.6583 33.564C28.4243 33.846 28.1873 34.152 27.9503 34.482C27.2453 35.466 26.1053 36.054 24.9053 36.054C23.8373 36.054 22.8143 35.598 22.1033 34.815C21.4013 34.038 21.0563 32.985 21.1613 31.935C21.1973 31.554 21.2453 31.182 21.2993 30.822C21.4403 29.862 21.1583 28.89 20.5253 28.158C19.8923 27.423 18.9743 27 18.0053 27C8.91827 27 2.70527 30.357 0.962268 36.213C0.413268 38.055 0.095268 40.164 0.00226798 42.483C-0.045732 43.797 0.671268 45.069 1.85927 45.804C4.24427 47.274 10.9433 48 17.7083 48C24.6803 48 31.7243 47.226 34.1753 45.693C35.3573 44.946 36.0593 43.641 35.9963 42.294C35.8973 40.044 35.5793 37.995 35.0483 36.213C34.8173 35.439 34.5053 34.713 34.1183 34.032" fill="#050505"/>
<path fill-rule="evenodd" clip-rule="evenodd" d="M36.001 27.0005C32.644 27.0005 29.083 27.7565 25.513 32.7335C25.063 33.3575 24.067 32.9975 24.145 32.2295C25.507 18.4925 36.079 18.0005 36.001 18.0005V13.0025C36.001 12.0995 37.102 11.6585 37.726 12.3125L46.807 21.8435C47.464 22.5395 47.44 23.6375 46.744 24.2975L37.528 33.0545C37.264 33.3035 36.88 33.3695 36.55 33.2255C36.214 33.0845 36.001 32.7575 36.001 32.3975V27.0005Z" fill="#050505"/>
</svg>
