<svg width="48" height="48" viewBox="0 0 48 48" fill="none" xmlns="http://www.w3.org/2000/svg">
<g clip-path="url(#clip0)">
<path d="M7.5 22H16.5C19.53 22 22 19.53 22 16.5V7.5C22 4.47 19.53 2 16.5 2H7.5C4.47 2 2 4.47 2 7.5V16.5C2 19.53 4.47 22 7.5 22Z" fill="black"/>
<path d="M36 23C42.0751 23 47 18.0751 47 12C47 5.92487 42.0751 1 36 1C29.9249 1 25 5.92487 25 12C25 18.0751 29.9249 23 36 23Z" fill="black"/>
<path d="M23.8 45.25C24.07 44.78 24.07 44.21 23.8 43.75L13.3 25.75C13.03 25.28 12.53 25 12 25C11.47 25 10.97 25.28 10.7 25.74L0.199998 43.74C-0.0700024 44.2 -0.0700024 44.78 0.199998 45.24C0.469998 45.7 0.959998 46 1.5 46H22.5C23.04 46 23.53 45.71 23.8 45.25Z" fill="black"/>
<path d="M40.77 25C38.59 25 37.07 25.92 36 26.98C34.92 25.92 33.41 25 31.23 25C26.97 25 24 28.11 24 32.57C24 39.37 34.27 47 36 47C37.73 47 48 39.37 48 32.57C48 28.11 45.03 25 40.77 25Z" fill="black"/>
</g>
<defs>
<clipPath id="clip0">
<rect width="48" height="48" fill="white"/>
</clipPath>
</defs>
</svg>
