<svg width="48" height="48" viewBox="0 0 48 48" fill="none" xmlns="http://www.w3.org/2000/svg">
<path fill-rule="evenodd" clip-rule="evenodd" d="M41.3712 33.1113C40.5672 33.6533 38.2192 33.9993 35.3913 33.9993C35.2373 33.9993 35.0853 33.9973 34.9353 33.9953C34.4133 33.9893 33.9853 33.5873 33.9473 33.0693C33.8673 31.9513 33.7193 30.6574 33.5053 29.8834C33.2993 29.1294 32.9853 28.4374 32.5773 27.8154C32.1873 27.2234 32.4573 26.4235 33.1453 26.2575C33.8513 26.0875 34.6413 25.9995 35.4993 25.9995C38.7872 25.9995 41.0312 27.2874 41.6572 29.5294C41.8471 30.2174 41.9631 31.0054 41.9971 31.8753C42.0191 32.3713 41.7831 32.8333 41.3712 33.1113M35.4993 15.9997C37.6912 15.9997 38.9992 17.4956 38.9992 19.9996C38.9992 22.3195 37.5272 23.9995 35.4993 23.9995C33.4733 23.9995 31.9993 22.3195 31.9993 19.9996C31.9993 17.4956 33.3093 15.9997 35.4993 15.9997M31.2254 34.8913C30.2354 35.5653 27.3454 35.9993 23.8655 35.9993C20.5236 35.9993 17.7456 35.5853 16.7877 34.9433C16.2837 34.6073 15.9817 34.0293 16.0017 33.4353C16.0417 32.3133 16.1837 31.2954 16.4257 30.4114C17.1956 27.6094 19.9576 25.9995 24.0015 25.9995C28.0474 25.9995 30.8074 27.6094 31.5774 30.4114C31.8134 31.2714 31.9553 32.2573 31.9973 33.3433C32.0233 33.9653 31.7354 34.5433 31.2254 34.8913M12.4997 23.9995C10.4738 23.9995 8.99982 22.3195 8.99982 19.9996C8.99982 17.4956 10.3098 15.9997 12.4997 15.9997C14.6917 15.9997 15.9997 17.4956 15.9997 19.9996C15.9997 22.3195 14.5277 23.9995 12.4997 23.9995M15.4237 27.8154C15.0157 28.4374 14.7017 29.1294 14.4957 29.8834C14.2817 30.6574 14.1337 31.9513 14.0537 33.0693C14.0157 33.5873 13.5857 33.9893 13.0657 33.9953C12.9137 33.9973 12.7637 33.9993 12.6097 33.9993C9.7818 33.9993 7.43385 33.6533 6.62987 33.1113C6.21787 32.8333 5.98188 32.3713 6.00188 31.8753C6.03788 31.0054 6.15388 30.2174 6.34387 29.5294C6.96986 27.2874 9.21381 25.9995 12.4997 25.9995C13.3597 25.9995 14.1497 26.0875 14.8557 26.2575C15.5437 26.4235 15.8137 27.2234 15.4237 27.8154M23.9995 13.9997C26.8455 13.9997 28.5454 15.8697 28.5454 18.9996C28.5454 21.8976 26.6355 23.9995 23.9995 23.9995C21.3656 23.9995 19.4556 21.8976 19.4556 18.9996C19.4556 15.8697 21.1556 13.9997 23.9995 13.9997M23.9995 0C10.7458 0 0 10.7458 0 23.9995C0 37.2532 10.7458 47.999 23.9995 47.999C37.2532 47.999 47.999 37.2532 47.999 23.9995C47.999 10.7458 37.2532 0 23.9995 0" fill="black"/>
</svg>
