<svg width="48" height="48" viewBox="0 0 48 48" fill="none" xmlns="http://www.w3.org/2000/svg">
<path fill-rule="evenodd" clip-rule="evenodd" d="M36.6423 30.8546C36.1695 31.5026 35.5503 31.973 34.7656 32.1842C33.4576 32.5322 32.1136 31.8674 31.6 30.6026C30.9928 29.1051 30.3929 27.6051 29.7905 26.1051C29.3921 25.114 28.9937 24.1252 28.5617 23.0452C28.2593 23.7964 27.9905 24.4684 27.7193 25.138C26.9993 26.9307 26.2842 28.7259 25.5618 30.5186C25.1178 31.6274 24.177 32.285 23.0346 32.2922C21.8995 32.297 20.9467 31.637 20.5003 30.533C18.9379 26.6427 17.2964 22.3372 15.734 18.4469L15.6932 18.3269H19.3939C19.4035 18.3485 19.4131 18.3749 19.4251 18.4013C20.5243 21.1781 21.7219 24.3604 22.833 27.1323C22.8882 27.2619 22.9434 27.3891 23.0226 27.5835C23.0922 27.4299 23.1426 27.3315 23.1834 27.2307C24.1506 24.8164 25.1154 22.4044 26.0874 19.9925C26.4834 19.0061 27.2417 18.4661 28.2569 18.3461C29.2769 18.2261 30.1265 18.6125 30.7457 19.4549C30.8824 19.6397 30.9784 19.8605 31.0648 20.0789C32.0872 22.606 33.1024 25.1404 34.12 27.6723C34.1776 27.8115 34.2376 27.9507 34.3144 28.1283C34.3768 28.0563 34.4224 28.0107 34.456 27.9603C38.6127 21.1733 34.8136 12.2311 27.0017 10.9039C21.5179 9.97273 17.0708 12.0799 14.0061 16.7214C9.12458 24.1204 12.7389 34.1065 21.1291 36.7441C23.4186 37.4641 25.7394 37.5145 28.0721 36.9649C28.1345 36.9481 28.1969 36.9361 28.2641 36.9217V40.4832C20.4787 41.9928 12.9525 37.9945 9.74616 30.6386C7.13743 24.6484 8.3998 17.3238 12.8493 12.5695C15.5756 9.65594 18.8971 7.91598 22.821 7.352C30.5873 6.23602 37.7655 11.3191 39.2942 19.1021C40.1414 23.3908 39.215 27.3291 36.6423 30.8546M23.9994 0.000976562C10.7469 0.000976562 0 10.7455 0 24.0004C0 28.5195 1.25037 32.7482 3.42472 36.3601L0 47.9998L12.2589 44.9351C15.7292 46.8862 19.7347 47.9998 23.9994 47.9998C37.2543 47.9998 47.9988 37.2529 47.9988 24.0004C47.9988 10.7455 37.2543 0.000976562 23.9994 0.000976562" fill="black"/>
</svg>
