<svg width="69" height="48" viewBox="0 0 69 48" fill="none" xmlns="http://www.w3.org/2000/svg">
<g clip-path="url(#clip0)">
<path d="M23.4915 -0.5H3.50847C1.40531 -0.5 -0.5 1.386 -0.5 3.48265V44.5174C-0.5 46.7793 1.41954 48.5 3.50847 48.5H23.4915C25.7472 48.5 27.5 46.7654 27.5 44.5174V3.48265C27.5 1.40012 25.7612 -0.5 23.4915 -0.5ZM3.50847 8.07098H23.4915C23.9414 8.07098 24.2119 8.41457 24.2119 8.78233V39.2177C24.2119 39.5854 23.9414 39.929 23.4915 39.929H3.50847C3.3647 39.929 3.18001 39.8527 3.02174 39.6956C2.86324 39.5383 2.78814 39.3566 2.78814 39.2177V8.78233C2.78814 8.64342 2.86324 8.46172 3.02174 8.30438C3.18001 8.14728 3.3647 8.07098 3.50847 8.07098ZM13.5763 42.4432C14.524 42.4432 15.3644 43.2828 15.3644 44.2145C15.3644 45.3188 14.5032 46.1372 13.5763 46.1372C12.476 46.1372 11.6356 45.2977 11.6356 44.2145C11.6356 43.3034 12.4548 42.4432 13.5763 42.4432Z" fill="#20252D" stroke="white"/>
<rect x="4" y="12.7349" width="31" height="23.5102" fill="white"/>
<path d="M12.7061 30.6938H14.0244V20.125H12.7134L9.90088 22.1465V23.5381L12.5889 21.5898H12.7061V30.6938ZM17.6206 30.6938H19.0049L23.707 21.3481V20.125H16.7124V21.3042H22.3667V21.4067L17.6206 30.6938ZM29.6836 30.6938H30.9727V28.5039H32.4741V27.3247H30.9727V20.125H29.061C27.5815 22.3296 25.9629 24.9077 24.5347 27.3027V28.5039H29.6836V30.6938ZM25.8823 27.2441C27.0322 25.3032 28.4165 23.1206 29.603 21.3481H29.6909V27.332H25.8823V27.2441ZM39.271 27.0391V25.8452H34.4663V27.0391H39.271ZM45.1011 30.9429C47.2617 30.9429 48.7339 29.4487 48.7339 27.2734C48.7339 25.1787 47.269 23.7871 45.4966 23.7871C44.4419 23.7871 43.6582 24.1094 43.1455 24.7466H43.0283L43.3579 21.3042H48.1919V20.125H42.3252L41.7173 26.1675H42.9551C43.3726 25.3838 44.1636 24.9224 45.167 24.9224C46.5 24.9224 47.4155 25.8818 47.4155 27.3101C47.4155 28.7896 46.5 29.7856 45.1157 29.7856C43.8706 29.7856 42.9624 29.0312 42.8452 27.9033H41.5488C41.666 29.7124 43.1016 30.9429 45.1011 30.9429ZM54.4834 30.9429C56.7246 30.9429 58.292 29.6758 58.292 27.8667C58.292 26.4897 57.4204 25.4204 56.0947 25.1714V25.0542C57.186 24.7539 57.8599 23.853 57.8599 22.6958C57.8599 21.0479 56.4609 19.876 54.4834 19.876C52.5059 19.876 51.1069 21.0479 51.1069 22.6958C51.1069 23.8457 51.7954 24.7612 52.8721 25.0542V25.1714C51.5464 25.4204 50.6748 26.4897 50.6748 27.8667C50.6748 29.6758 52.2422 30.9429 54.4834 30.9429ZM54.4834 24.6147C53.2383 24.6147 52.4033 23.897 52.4033 22.8203C52.4033 21.729 53.231 21.0039 54.4834 21.0039C55.7358 21.0039 56.5635 21.729 56.5635 22.8203C56.5635 23.897 55.7285 24.6147 54.4834 24.6147ZM54.4834 29.8149C53.0186 29.8149 52.0078 28.98 52.0078 27.7715C52.0078 26.563 53.0186 25.728 54.4834 25.728C55.9482 25.728 56.959 26.563 56.959 27.7715C56.959 28.98 55.9482 29.8149 54.4834 29.8149ZM64.188 30.9355C66.356 30.9355 67.894 29.4194 67.894 27.2954C67.894 25.2446 66.4365 23.7578 64.4224 23.7578C63.1626 23.7578 62.1299 24.3584 61.6099 25.3838H61.4927C61.5366 22.5127 62.562 21.0479 64.3198 21.0479C65.3892 21.0479 66.1655 21.5972 66.3853 22.5786H67.7402C67.4692 20.938 66.2021 19.876 64.2759 19.876C61.7783 19.876 60.2109 21.9561 60.2109 25.5889C60.2109 29.1484 61.8882 30.9355 64.188 30.9355ZM64.1733 29.7783C62.8184 29.7783 61.7856 28.709 61.7856 27.2954C61.7856 25.8965 62.7891 24.9004 64.188 24.9004C65.5869 24.9004 66.561 25.8965 66.561 27.3394C66.561 28.7236 65.5283 29.7783 64.1733 29.7783Z" fill="#20252D"/>
</g>
<defs>
<clipPath id="clip0">
<rect width="69" height="48" fill="white"/>
</clipPath>
</defs>
</svg>
