<svg width="48" height="48" viewBox="0 0 48 48" fill="none" xmlns="http://www.w3.org/2000/svg">
<path d="M2.40002 14.3999H4.80002" stroke="black" stroke-width="3" stroke-linecap="round"/>
<path fill-rule="evenodd" clip-rule="evenodd" d="M21.6 14.4001C21.6 17.0497 19.4496 19.2001 16.8 19.2001C14.1504 19.2001 12 17.0497 12 14.4001C12 11.7505 14.1504 9.6001 16.8 9.6001C19.4496 9.6001 21.6 11.7505 21.6 14.4001Z" stroke="black" stroke-width="3" stroke-linecap="round"/>
<path d="M28.8 14.3999H45.6" stroke="black" stroke-width="3" stroke-linecap="round"/>
<path d="M45.6 33.6001H43.2" stroke="black" stroke-width="3" stroke-linecap="round"/>
<path fill-rule="evenodd" clip-rule="evenodd" d="M26.4 33.5998C26.4 30.9502 28.5504 28.7998 31.2 28.7998C33.8496 28.7998 36 30.9502 36 33.5998C36 36.2494 33.8496 38.3998 31.2 38.3998C28.5504 38.3998 26.4 36.2494 26.4 33.5998Z" stroke="black" stroke-width="3" stroke-linecap="round"/>
<path d="M19.2 33.6001H2.40002" stroke="black" stroke-width="3" stroke-linecap="round"/>
</svg>
