<svg width="48" height="48" viewBox="0 0 48 48" fill="none" xmlns="http://www.w3.org/2000/svg">
<path fill-rule="evenodd" clip-rule="evenodd" d="M39 22C36.104 22 34 19.686 34 16.5C34 13.054 35.87 11 39 11C42.13 11 44 13.054 44 16.5C44 19.686 41.896 22 39 22" fill="black"/>
<path fill-rule="evenodd" clip-rule="evenodd" d="M4 16.5C4 13.054 5.87 11 9 11C12.13 11 14 13.054 14 16.5C14 19.686 11.896 22 9 22C6.104 22 4 19.686 4 16.5" fill="black"/>
<path fill-rule="evenodd" clip-rule="evenodd" d="M0.475904 29.295C1.3419 25.929 4.4459 24.001 8.9979 24.001C10.3639 24.001 11.5899 24.183 12.6679 24.523C12.9439 24.611 13.1599 24.837 13.2319 25.119C13.3059 25.401 13.2299 25.701 13.0279 25.915C11.9399 27.073 11.1499 28.471 10.7039 30.089C10.3099 31.523 10.0739 33.155 10.0039 34.935C9.9999 35.003 9.9999 35.075 9.9999 35.145C10.0019 35.371 9.9139 35.587 9.7539 35.749C9.5959 35.911 9.3779 36.001 9.1499 36.001C5.2359 36.001 1.9859 35.477 0.871904 34.669C0.297904 34.253 -0.0280958 33.559 0.00190422 32.813C0.0499042 31.507 0.209904 30.325 0.475904 29.295" fill="black"/>
<path fill-rule="evenodd" clip-rule="evenodd" d="M23.7995 40C18.7855 40 14.6175 39.378 13.1795 38.414C12.4255 37.91 11.9715 37.042 12.0035 36.154C12.0615 34.468 12.2755 32.944 12.6395 31.618C13.7935 27.414 17.9355 25 24.0035 25C30.0715 25 34.2115 27.414 35.3655 31.62C35.7195 32.906 35.9335 34.386 35.9995 36.016C36.0355 36.948 35.6015 37.816 34.8395 38.336C33.3535 39.348 29.0195 40 23.7995 40" fill="black"/>
<path fill-rule="evenodd" clip-rule="evenodd" d="M24 22C20.524 22 18 19.056 18 15C18 10.618 20.242 8 24 8C27.758 8 30 10.618 30 15C30 19.056 27.476 22 24 22" fill="black"/>
<path d="M43 43V35" stroke="black" stroke-linecap="round"/>
<path d="M39 39H47" stroke="black" stroke-linecap="round"/>
<path fill-rule="evenodd" clip-rule="evenodd" d="M37.996 34.934C38 35.004 38 35.074 38 35.144C37.998 35.372 38.086 35.588 38.246 35.748C38.404 35.91 38.62 36 38.848 36C39.242 36 39.62 35.99 40 35.98V35C40 33.344 41.344 32 43 32C44.656 32 46 33.344 46 35V35.186C46.478 35.032 46.868 34.858 47.126 34.668C47.702 34.252 48.028 33.56 47.998 32.812C47.95 31.508 47.788 30.324 47.524 29.296C46.658 25.93 43.552 24 39.002 24C37.636 24 36.41 24.184 35.332 24.524C35.054 24.612 34.84 24.836 34.768 25.12C34.694 25.4 34.77 25.702 34.97 25.914C36.058 27.072 36.85 28.472 37.294 30.09C37.688 31.524 37.926 33.152 37.996 34.934" fill="black"/>
</svg>
